<?xml version="1.0" encoding="UTF-8"?>
<!DOCTYPE svg PUBLIC "-//W3C//DTD SVG 1.1//EN" "http://www.w3.org/Graphics/SVG/1.1/DTD/svg11.dtd">
<!-- Creator: CorelDRAW 2020 (64-Bit) -->
<svg xmlns="http://www.w3.org/2000/svg" xml:space="preserve" width="5.6726mm" height="5.6726mm" version="1.1" style="shape-rendering:geometricPrecision; text-rendering:geometricPrecision; image-rendering:optimizeQuality; fill-rule:evenodd; clip-rule:evenodd"
viewBox="0 0 567.26 567.26"
 xmlns:xlink="http://www.w3.org/1999/xlink"
 xmlns:xodm="http://www.corel.com/coreldraw/odm/2003">
 <defs>
  <style type="text/css">
   <![CDATA[
    .fil0 {fill:#DCC7C7;fill-rule:nonzero}
   ]]>
  </style>
 </defs>
 <g id="Слой_x0020_1">
  <metadata id="CorelCorpID_0Corel-Layer"/>
  <path class="fil0" d="M-27.2 251.57c170.46,-74.68 284.12,-123.91 341,-147.69 162.38,-67.92 196.12,-79.72 218.11,-80.11 4.84,-0.08 15.65,1.12 22.66,6.84 5.91,4.83 7.54,11.35 8.32,15.92 0.78,4.58 1.75,15 0.98,23.15 -8.8,92.97 -46.88,318.58 -66.25,422.71 -8.19,44.06 -24.33,58.83 -39.96,60.28 -33.95,3.14 -59.74,-22.56 -92.62,-44.24 -51.47,-33.92 -80.54,-55.04 -130.49,-88.14 -57.73,-38.25 -20.31,-59.28 12.59,-93.64 8.61,-8.99 158.22,-145.83 161.11,-158.24 0.37,-1.55 0.7,-7.34 -2.72,-10.4 -3.41,-3.05 -8.46,-2.01 -12.1,-1.18 -5.16,1.18 -87.38,55.82 -246.64,163.93 -23.33,16.11 -44.47,23.96 -63.41,23.55 -20.88,-0.46 -61.04,-11.87 -90.89,-21.63 -36.62,-11.97 -65.72,-18.3 -63.19,-38.62 1.32,-10.59 15.82,-21.42 43.5,-32.49z"/>
 </g>
</svg>
